<?xml version="1.0" encoding="utf-8"?>
<!-- Generator: Adobe Illustrator 15.0.0, SVG Export Plug-In  -->
<!DOCTYPE svg PUBLIC "-//W3C//DTD SVG 1.1//EN" "http://www.w3.org/Graphics/SVG/1.1/DTD/svg11.dtd" [
	<!ENTITY ns_flows "http://ns.adobe.com/Flows/1.0/">
]>
<svg version="1.1"
	 xmlns="http://www.w3.org/2000/svg" xmlns:xlink="http://www.w3.org/1999/xlink" xmlns:a="http://ns.adobe.com/AdobeSVGViewerExtensions/3.0/"
	 x="0px" y="0px" width="876px" height="244px" viewBox="0 0 876 244" overflow="visible" enable-background="new 0 0 876 244"
	 xml:space="preserve">
<defs>
</defs>
<circle fill="none" stroke="#9FA4AD" stroke-width="21" stroke-linecap="round" stroke-miterlimit="10" cx="122.1" cy="122.101" r="111.6"/>
<line fill="none" stroke="#9FA4AD" stroke-width="21" stroke-linecap="round" stroke-miterlimit="10" x1="82.5" y1="150.9" x2="82.5" y2="123.207"/>
<line fill="none" stroke="#9FA4AD" stroke-width="21" stroke-linecap="round" stroke-miterlimit="10" x1="118.5" y1="150.9" x2="118.5" y2="106.315"/>
<line fill="none" stroke="#9FA4AD" stroke-width="21" stroke-linecap="round" stroke-miterlimit="10" x1="154.5" y1="150.682" x2="154.5" y2="78.9"/>
<path fill="#9FA4AD" d="M281.073,72.704h43.674c16.591,0,27.327,8.052,27.327,25.131c0,14.518-7.808,22.691-20.373,24.765
	l15.493,26.717h12.2v8.784h-18.787l-20.251-35.013h-17.567v26.229h12.81v8.784h-34.524v-8.784h11.589V81.488h-11.589V72.704z
	 M302.788,114.304h21.715c10.491,0,17.201-5.246,17.201-16.469c0-11.223-6.832-16.347-17.201-16.347h-21.715V114.304z"/>
<path fill="#9FA4AD" d="M415.881,138.825c-0.732,13.053-10.125,20.494-25.375,20.494c-15.859,0-25.863-8.295-25.863-23.544v-17.812
	c0-15.371,10.125-23.301,25.741-23.301c15.371,0,25.619,7.93,25.619,23.301v11.711h-41.966v6.711
	c0,9.148,5.855,14.761,16.469,14.761c10.248,0,15.493-5.124,15.981-12.321H415.881z M374.037,122.112h32.45v-4.758
	c0-9.637-6.344-14.517-16.103-14.517c-9.881,0-16.347,4.88-16.347,14.517V122.112z"/>
<path fill="#9FA4AD" d="M424.791,149.927h11.589v-45.87H422.96v-8.173h13.419v-5.49c0-17.445,4.026-26.961,28.668-22.813v7.808
	c-16.103-2.196-19.153,1.464-19.153,14.029v6.466h19.153v8.173h-19.153v45.87h11.59v8.174h-32.694V149.927z"/>
<path fill="#9FA4AD" d="M523.362,138.825c-0.732,13.053-10.125,20.494-25.375,20.494c-15.859,0-25.862-8.295-25.862-23.544v-17.812
	c0-15.371,10.126-23.301,25.741-23.301c15.371,0,25.618,7.93,25.618,23.301v11.711h-41.966v6.711
	c0,9.148,5.855,14.761,16.469,14.761c10.248,0,15.494-5.124,15.981-12.321H523.362z M481.519,122.112h32.45v-4.758
	c0-9.637-6.344-14.517-16.103-14.517c-9.882,0-16.348,4.88-16.348,14.517V122.112z"/>
<path fill="#9FA4AD" d="M536.54,95.883h18.91l1.342,7.808c5.489-7.32,15.492-10.37,24.887-8.174v8.54
	c-14.64-2.684-24.033,3.294-24.033,13.297v32.573h11.59v8.174H536.54v-8.174h11.59v-45.87h-11.59V95.883z"/>
<path fill="#9FA4AD" d="M588.999,95.883h18.91l1.342,7.808c5.49-7.32,15.492-10.37,24.887-8.174v8.54
	c-14.639-2.684-24.033,3.294-24.033,13.297v32.573h11.59v8.174h-32.695v-8.174h11.59v-45.87h-11.59V95.883z"/>
<path fill="#9FA4AD" d="M693.673,138.825c-0.732,13.053-10.127,20.494-25.375,20.494c-15.859,0-25.863-8.295-25.863-23.544v-17.812
	c0-15.371,10.125-23.301,25.74-23.301c15.371,0,25.619,7.93,25.619,23.301v11.711h-41.967v6.711c0,9.148,5.857,14.761,16.471,14.761
	c10.246,0,15.492-5.124,15.98-12.321H693.673z M651.827,122.112h32.451v-4.758c0-9.637-6.344-14.517-16.104-14.517
	c-9.881,0-16.348,4.88-16.348,14.517V122.112z"/>
<path fill="#9FA4AD" d="M706.851,95.883h18.908l1.342,7.808c5.49-7.32,15.494-10.37,24.887-8.174v8.54
	c-14.639-2.684-24.031,3.294-24.031,13.297v32.573h11.588v8.174h-32.693v-8.174h11.59v-45.87h-11.59V95.883z"/>
<path fill="#9FA4AD" d="M780.415,149.927h11.588v8.174H759.31v-8.174h11.59V75.998h-11.59v-8.173h21.105V149.927z"/>
<path fill="#9FA4AD" d="M815.183,174.325h11.834l6.832-16.225h-3.172l-22.324-54.044h-9.639v-8.173h30.254v8.173h-10.734
	l18.787,45.504l18.664-45.504H844.95v-8.173h29.645v8.173h-9.516l-29.4,70.269h10.248v8.174h-30.744V174.325z"/>
</svg>
